<svg xmlns="http://www.w3.org/2000/svg" viewBox="0 0 383.23 358.05"><defs><style>.cls-1{fill:none;stroke:#fff;stroke-miterlimit:10;}.cls-2{fill:#fff;}</style></defs><g id="Layer_2" data-name="Layer 2"><g id="Layer_1-2" data-name="Layer 1"><g id="Chair"><path class="cls-1" d="M234.57,66.84a14.33,14.33,0,0,1-4.22-11.09c.76-12.55,3.46-44.8,11.79-50.61,10.47-7.3,23.8-3.81,23.8-3.81s72,14,95.48,16.5,20.94,12.43,20.94,12.43-5.26,18.11-8.7,36c-2.25,11.68-1.88,30.34-6.66,32-10.43,3.69-42.43-3.23-81.86-12.56C262.1,80.32,240.63,72.81,234.57,66.84Z"/><path class="cls-1" d="M368.06,97.59s4.46.31,6.59-17a232,232,0,0,1,5.84-30.67s3.34-14.64,1.87-19.66"/><ellipse class="cls-1" cx="267.99" cy="43.65" rx="3.16" ry="3.53"/><ellipse class="cls-1" cx="338.85" cy="54.55" rx="3.16" ry="3.58"/><path class="cls-1" d="M134.43,119.83S158,114,178,113.19c13.81-.58,21.85,4.81,25.48,8.17a8.77,8.77,0,0,1,2.75,5.56c.55,5.12.93,15.4-4.08,19-6.78,4.95-32.49,8.47-42.66,8.48-7,0-7.59-5.25-7.91-7.28-.39-2.54-.08-2.73-.73-9.08-.35-3.42-1.43-7.5-4.54-8.86-4.95-2.17-11.83-4.45-11.83-4.45S129.63,122.38,134.43,119.83Z"/><path class="cls-1" d="M132.52,123.05s-3.82,4.19-1.88,6.66,8.69,4.2,8.69,4.2a7.61,7.61,0,0,1,5.07,7c.12,5.42,0,9.48,0,9.48s-.54,4.24,6.24,4.07,6.21-.29,6.21-.29"/><path class="cls-1" d="M206.49,162.45s-7.65-1.14-2.86-18"/><path class="cls-1" d="M206.43,134.72l8.88-20.26L222,101.05s2.45-5,12-5S252,97,255.18,97.29s61,10.11,82.24,16.86,7.23,2.27,14.7,4.67,13,2.25,9.1,10.18-6.8,21.3-6.8,21.3"/><path class="cls-1" d="M135.79,196.64s-14.37-10.49-9.52-18.45,6.22-9.52,13.4-12.43,21.75-5.63,28.55-6.21,20.39-.2,26.41,1.36,19,2.71,22.14,3.69,13,4.07,17.87,4.85,13.59,1.17,16.31,2.14,14.37,2.91,18.64,5,14.87,5.05,14.87,5.05"/><path class="cls-1" d="M219.83,218.06c-4.87-2-20-7.11-37.85-11.75s-38.5-8-38.5-8-38.86-9.53-50.17-11.09-22.83-2.21-28.82-1.1-25,9.31-27.71,10.5-22.61,9.67-27.26,15.21-6,9.31-5.77,23.28,20.62,21.28,20.62,21.28l86.28,21.32s11.37,2,16.28,0,12.44-7.37,18.18-15c3.41-4.54,9.65-12.8,14.16-16.86A60.54,60.54,0,0,1,172,236.47c6.47-3.79,32-15.15,37.25-16.5A80.05,80.05,0,0,1,219.83,218.06Z"/><path class="cls-1" d="M6,217S2.6,221.66.7,233.64s10.7,20.5,10.7,20.5,9.73,7.18,15.62,8.64c5.1,1.26,86.66,20,86.66,20s9.25,2.37,15.49-1.5,14.31-12,14.31-12l16.23-20.43s6.62-6.32,9.68-8c4.38-2.35,37.1-17.59,37.1-17.59s11.66-4.45,15.45-4.57,6.8,1.56,7.91,2.9,3.4,5.94-1.31,11.78-8.71,7-8.71,7L129.67,281"/><path class="cls-1" d="M114.59,283v17s3.44,3.18,8.2,0V283.49"/><path class="cls-1" d="M206,125.93s12.09-31.73,22-29.09"/><path class="cls-1" d="M151.88,154.45s-2.8,5.53-6.17,6.85-11.06,4.09-13.42,5.3-8.49,6.37-10,11.36,1.37,10.7,1.37,10.7l4,5.87"/><path class="cls-1" d="M180.35,152.35s1.59,5.47,3.35,6.94"/><path class="cls-1" d="M185.73,151.37s5.73,9.06,10.6,9.93"/><path class="cls-1" d="M229.85,221.57a87.08,87.08,0,0,0,10.24.73c3.72-.1,6.75-1.16,12.44-4,7.75-3.33,22.76-17.37,24.23-17.92s4.66-4.21,11.15-5.49,8.69-3.73,10.06-5.48,6.41-11.43,9.08-16.16c1.69-2,3.06-3.42,6.08-3.6,6.19-.68,11.19.09,11.92.45s3,.45,3.38,5.51-.34,8.56,1.46,11.71S336.08,197,341.15,200s4.39,9.91,3.82,14.07a17.31,17.31,0,0,1-13.25,13.78L231.39,224.6"/><path class="cls-1" d="M300.74,184.76H288.55s-5.14-.12-5-6.36,0-12.74,0-12.74a6.74,6.74,0,0,1,6.83-6.37c6.66-.37,25.8,0,25.8,0s10.56-.09,11.89-.16a42.7,42.7,0,0,0,7-1.59c3.76-1.13,23.12-6.88,23.48-6.29s.94,5.28,0,6.51-21.46,6.37-21.46,6.37-7.24,1.94-10.2,1.94-34.09.65-34.09.65a5.35,5.35,0,0,0-3.56,4.93,86.4,86.4,0,0,0-.13,8.91s.22,3.94,1.48,4.2"/><path class="cls-1" d="M288.17,159.68s44.73-9.38,50.68-9.92,15.57.54,15.57.54l4.2.95,4.74-23.33"/><path class="cls-1" d="M356.34,150.73s4.12-16.58,5.07-19,1.83-3.95,1.83-4.56.57-2.39-.74-3.17"/><path class="cls-1" d="M356.34,159.29l-10.16,35.65a2.84,2.84,0,0,1-2.46,2.78c-2.53.5-4.78.73-4.78.73"/><path class="cls-1" d="M336.73,196.43s7.56-.23,7.12-1.37A16.43,16.43,0,0,0,340.3,190c-1.67-1.53-8.43-7.6-9.46-8.65-.83-.85-2.09-1-1.75-4.49a25.69,25.69,0,0,1,.55-3.15c.58-2.55.91-3.54.91-3.54s.06-1.32,3.32-2.71c3.74-1.61,12.57-1.84,12.57-1.84a7.44,7.44,0,0,0,3.72-1.95,13,13,0,0,0,2.36-3.68"/><path class="cls-1" d="M346.35,194.36l-1.29-2.68a2.34,2.34,0,0,0-.33-.49c-.37-.41-1.15-1.27-1.7-1.77-.73-.67-8.59-7.43-8.59-7.43s-3.77-2.49-3.77-4a21.32,21.32,0,0,1,.68-5.13c.46-1.62,1.58-4.55,2.52-5.37"/><ellipse class="cls-1" cx="244.21" cy="134.83" rx="3.79" ry="2.63" transform="translate(19.65 300.33) rotate(-65.29)"/><path class="cls-1" d="M315,154.18c-1.32-.61-1.68-2.64-.81-4.55s2.66-2.95,4-2.34,1.68,2.64.81,4.55a6.35,6.35,0,0,1-.54.92,4.88,4.88,0,0,1-1,1"/><path class="cls-2" d="M68.16,206.39c1.21.32,2.35.62,3.5.87a31.28,31.28,0,0,0,3.43.53,23.32,23.32,0,0,0,3.45.13c1.17,0,2.33-.15,3.6-.21l0,.09a16.57,16.57,0,0,1-3.54.9,14.39,14.39,0,0,1-3.65.08,15.48,15.48,0,0,1-3.57-.78,15.13,15.13,0,0,1-3.32-1.53Z"/><path class="cls-2" d="M148.91,221a8.35,8.35,0,0,0,4.82,3l.68.1c.23,0,.47,0,.71,0a11.91,11.91,0,0,0,1.45-.05l1.52-.21a15.76,15.76,0,0,1,1.6-.24l.05.09-1.46.65c-.51.16-1,.34-1.53.47a8.56,8.56,0,0,1-3.19.17,6.29,6.29,0,0,1-2.88-1.38,6.77,6.77,0,0,1-1.86-2.59Z"/><path class="cls-1" d="M268,99.38s4.48-13.06,4.53-16.85"/><path class="cls-1" d="M275.27,100.66s3.83-10,4.34-16.25"/><path class="cls-1" d="M278.38,101.23S283,88.65,282,85"/><path class="cls-1" d="M338.85,113.78a86.46,86.46,0,0,0,4.37-16.19"/><path class="cls-1" d="M345.76,116.79s1.28-1.68,5.18-17.9"/><path class="cls-1" d="M348.35,117.61s4.75-14.17,5.77-18.23"/><path class="cls-1" d="M127.32,344.77V356s4.67,3.64,9.34-.26v-11S133.47,342.24,127.32,344.77Z"/><path class="cls-1" d="M127.32,344.77s5.82,2.16,9.34,0"/><path class="cls-1" d="M31.1,321v11.24s4.67,3.65,9.34-.25V321S37.25,318.43,31.1,321Z"/><path class="cls-1" d="M31.1,321s5.83,2.16,9.34,0"/><path class="cls-1" d="M197.33,311.12v11.23s4.67,3.65,9.33-.25v-11S203.48,308.59,197.33,311.12Z"/><path class="cls-1" d="M244.19,283.5v11.24s4.67,3.64,9.33-.26v-11S250.34,281,244.19,283.5Z"/><path class="cls-1" d="M244.19,283.5s5.82,2.16,9.33,0"/><path class="cls-1" d="M111.08,288.59s-3.19-2.53-9.34,0v11.23s4.67,3.65,9.34-.25v-4.05"/><path class="cls-1" d="M101.74,288.59s5.82,2.16,9.34,0"/><path class="cls-1" d="M330.67,262.05v11.24s4.66,3.65,9.33-.25v-11S336.82,259.52,330.67,262.05Z"/><path class="cls-1" d="M330.67,262.05s5.82,2.16,9.33,0"/><path class="cls-1" d="M156.26,268.92v5.49s4.66,3.65,9.33-.25v-9.37"/><path class="cls-1" d="M293.88,229.9v11.24s4.67,3.65,9.34-.25v-11S300,227.38,293.88,229.9Z"/><path class="cls-1" d="M293.88,229.9s5.82,2.16,9.34,0"/><line class="cls-1" x1="105.39" y1="289.55" x2="114.27" y2="298.12"/><line class="cls-1" x1="108.04" y1="289.55" x2="114.59" y2="295.35"/><line class="cls-1" x1="114.59" y1="299.96" x2="40.11" y2="320.33"/><path class="cls-1" d="M40.44,321.43l73.42-19.34a14.15,14.15,0,0,0,4.13,2.16c1.77.39,12.19,39.39,12.19,39.39"/><path class="cls-1" d="M132,343.26l-10.27-39.6a7.19,7.19,0,0,0,2.17-2.29c.39-1.05,72.91,10.71,72.91,10.71l.53-1s5.82,2.16,9.33,0"/><line class="cls-1" x1="197.33" y1="311.12" x2="122.79" y2="299.05"/><path class="cls-1" d="M254.17,225.34v12.84s-5.2,3.14-13.29,0V224.91s11.77-1.89,17.92-7L274,205.11s7.2-5.71,8.93-6.5c3.35-1.53,11-3.35,11-3.35s5.21-2,7-5.68c2-4.11,4.88-10.45,4.88-10.45s4.82-9.17,6.07-9.34"/><path class="cls-1" d="M40.44,329.55s56.78-9.22,66-9.72,9.68-.69,9.68-.69l11.23,27.31"/><path class="cls-1" d="M197.33,320.33s-66.48-3.1-71.88-2.31"/><path class="cls-1" d="M246.85,282.38l-1.34-39.69s.16-2.29-4.63-1.95-64.15,19-64.15,19"/><path class="cls-1" d="M189.69,253.94l47.42-15.22s1.57-.89,0-1.34-10-1.65-10-1.65"/><line class="cls-1" x1="227.77" y1="234.26" x2="240.88" y2="235.73"/><line class="cls-1" x1="254.17" y1="235.73" x2="293.88" y2="230.86"/><path class="cls-1" d="M250.48,281.88l.74-40s-.12-1.66,3.79-1.2S330.67,263,330.67,263"/><path class="cls-1" d="M331.48,261.74l-75.29-23.63s-.69-.44,1-.87,36.07-6.3,36.07-6.3"/><path class="cls-1" d="M165.59,271.58,230.8,258a50.3,50.3,0,0,1,10.29-1.48c4.52,0,5.06,5.25,5.06,5.25"/><path class="cls-1" d="M330.67,270.86s-65.31-13.42-69.5-14.37c-1.36-.31-5.87-1.78-10.23.42"/><line class="cls-1" x1="277.74" y1="244.88" x2="293.77" y2="240.36"/></g></g></g></svg>